<?xml version="1.0" encoding="UTF-8"?>
<svg id="Ebene_1" data-name="Ebene 1" xmlns="http://www.w3.org/2000/svg" viewBox="0 0 839.79 788.46">
  <defs>
    <style>
      .cls-1 {
        fill: #2b8034;
      }

      .cls-2 {
        fill: #fff;
        stroke: #fff;
      }

      .cls-2, .cls-3, .cls-4 {
        stroke-miterlimit: 10;
      }

      .cls-3 {
        fill: #3c8032;
        stroke: #3e8032;
      }

      .cls-4 {
        fill: #48a734;
        stroke: #48a734;
      }
    </style>
  </defs>
  <path class="cls-1" d="m764.55,9.44S491.02-61.52,378.86,185.61c-.83,1.84-3.47,1.72-4.08-.2-9.6-30.02-66.3-165.03-290.69-79.87,12.71,5.1,30.96,14.12,48.47,30.29,27.99,25.86,32.51,50.06,46.95,72.7,17.52,27.45,44.11,43.91,70.36,54.72,27.24,11.21,56.58,16.46,86.03,16.46,17.72,0,26.55,0,30.95,0,2.82,0,6.28-.67,8.37-2.56l214.63-185.63c1.71-1.71,3.51.67,2.1,2.08l-163.72,181.52c-1.54,1.8-.26,4.58,2.11,4.58h197.36c3.01,0,5.62-2.13,6.26-5.08,45.44-210.53,67.81-224.49,130.59-265.21h0Z"/>
  <path class="cls-3" d="m839.29,352.55c-2.55,151.05-106.39,328.48-291.55,385.86-.88.27-1.7.68-2.41,1.22h-47.58c1.32-.98,2.65-1.97,3.94-2.99,133.98-101.68,217.6-245.77,217.6-405.55,0-8.89-.27-17.72-.78-26.5h73.68c26.37,0,47.55,21.62,47.1,47.95Z"/>
  <path class="cls-3" d="m545.32,739.63c-2,1.46-3.26,3.8-3.26,6.38v33.97c0,4.41-3.56,7.98-7.98,7.98h-32.41v-48.33h43.64Z"/>
  <path class="cls-4" d="m719.29,331.1c0,159.78-83.62,303.87-217.6,405.55-1.29,1.02-2.61,2-3.94,2.99h3.94v48.33h-199.72c-4.41,0-8.01-3.56-8.01-7.98v-31.6c0-3.6-2.44-6.72-5.91-7.67-1.26-.34-2.51-.68-3.77-1.09C75.43,680.41.5,485.14.5,346.88c0-22.87,16.29-42.29,39.2-42.29h678.81c.51,8.79.78,17.61.78,26.5Z"/>
  <path class="cls-2" d="m53.19,376.29h55.87c2.21,0,3.75,1.81,4.02,4.01,31.63,254.4,279.82,328.34,304.76,337.11.3.11.2.55-.12.55-192.11,0-368.15-186.99-368.15-338.02,0-2,1.62-3.65,3.62-3.65Z"/>
</svg>