<?xml version="1.0" encoding="UTF-8"?>
<svg id="Ebene_1" data-name="Ebene 1" xmlns="http://www.w3.org/2000/svg" viewBox="0 0 54.64 82.6">
  <g>
    <path d="M54.63,27.32C54.25,12.24,42.4,0,27.32,0S-.13,12.23,0,27.32c.19,23.18,28.26,55.28,28.26,55.28,0,0,26.95-32.76,26.38-55.28Zm-27.32,13.75c-7.6,0-13.75-6.16-13.75-13.75s6.16-13.75,13.75-13.75,13.75,6.16,13.75,13.75-6.16,13.75-13.75,13.75Z" style="fill: #c38a8a;"/>
    <circle cx="27.32" cy="27.85" r="19.36" style="fill: #c38a8a;"/>
  </g>
  <circle cx="27.1" cy="27.85" r="19.58" style="fill: #f6f6f6;"/>
  <path d="M40.47,26.69c0,.5-.03,1.01,0,1.52,.1,1.99-.69,3.63-2.02,5.09-2.4,2.59-5.5,3.95-8.88,4.55-4.23,.76-8.44,.44-12.42-1.2-1.2-.5-2.31-1.26-3.44-1.99-.63-.41-1.04-1.01-.98-1.86,.06-.79-.03-1.58-.06-2.37-.03-.95,.31-1.65,1.2-2.02,.76-.35,1.58-.6,2.34-.95,.48-.19,.92-.44,1.33-.73,.5-.35,.67-.88,.54-1.48-.1-.44-.16-.88-.29-1.33-.29-1.23,0-2.31,.79-3.25,1.67-2.12,3.89-3.32,6.45-3.85,4.62-.96,8.95-.29,12.8,2.52,1.74,1.26,2.69,3.1,2.65,5.31-.03,.69,0,1.35,0,2.05h0Zm-15.93,7.71c.67,0,1.48-.16,2.27-.29,1.55-.29,3.13-.5,4.61-.98,3-.95,5.5-2.63,7.02-5.5,1.2-2.27,1.14-4.74-.38-6.35-.79-.85-1.74-1.61-2.78-2.12-2.68-1.39-5.59-1.77-8.59-1.45-2.75,.29-5.12,1.39-7.02,3.41-.73,.79-1.04,1.67-.76,2.75,.1,.35,.16,.69,.22,1.04,.25,1.36-.13,2.31-1.29,3-.63,.38-1.33,.63-1.99,.95-.57,.29-1.14,.57-1.67,.85-.35,.09-.44,.41-.25,.76,.13,.31,.29,.67,.54,.85,.76,.57,1.48,1.17,2.34,1.52,2.37,1.07,4.96,1.61,7.74,1.54h0Z" style="fill: #c38a8a;"/>
  <path d="M23.75,32.85c-2.02-.13-4.2-.29-6.23-1.23-.29-.13-.57-.25-.76-.48-.29-.35-.69-.76-.67-1.14,.03-.31,.57-.63,.95-.82,.63-.31,1.29-.44,1.93-.73,1.86-.85,2.56-2.53,1.86-4.46-.48-1.33-.25-2.05,.95-2.81,.57-.35,1.2-.63,1.8-.92,2.75-1.26,5.66-1.48,8.57-.76,1.23,.31,2.44,.88,3.51,1.58,1.93,1.26,2.46,3.7,1.48,5.85-1.04,2.31-2.91,3.76-5.25,4.68-2.58,1.01-5.24,1.27-8.15,1.23h0Zm8.25-8.38c.31,.03,.57,.16,.82,.31,.38,.25,.76,.54,1.1,.82,.31,.25,1.39,.35,1.61,.1,.16-.19,.13-.29,.1-.41-.03-.13-.19-.35-.57-.38s-1.14-.03-1.48-.16c-1.1-.41-1.61-1.23-1.52-2.44,.03-.29,.16-.6,.16-.88,0-.41-.38-.54-.44-.54-.25,.03-.19,.03-.38,.16-.1,.06-.22,.54-.19,.69,.06,.48,.19,.92,.22,1.39,.06,.63-.19,1.1-.79,1.39-.41,.19-.82,.31-1.23,.54-.16,.1-.35,.13-.31,.48,0,.16,.25,.38,.41,.38,.22,.03,.48-.06,.67-.19,.35-.25,.6-.57,.95-.79,.25-.25,.4-.51,.88-.48h0Z" style="fill: #c38a8a;"/>
</svg>