<?xml version="1.0" encoding="UTF-8"?>
<svg id="Ebene_1" data-name="Ebene 1" xmlns="http://www.w3.org/2000/svg" viewBox="0 0 78.99 82.6">
  <g>
    <path d="M54.63,27.32C54.25,12.24,42.4,0,27.32,0S-.13,12.23,0,27.32c.19,23.18,28.26,55.28,28.26,55.28,0,0,26.95-32.76,26.38-55.28Zm-27.32,13.75c-7.6,0-13.75-6.16-13.75-13.75s6.16-13.75,13.75-13.75,13.75,6.16,13.75,13.75-6.16,13.75-13.75,13.75Z" style="fill: #28a737;"/>
    <circle cx="27.32" cy="27.85" r="19.36" style="fill: #28a737;"/>
  </g>
  <circle cx="27.1" cy="27.85" r="19.58" style="fill: #f6f6f6;"/>
  <path d="M39.35,15.8s-10.37,2.06-13.09,8.73c-2.31,5.66,1.65,12.82,2.89,14.84,2.46-3.92,7.15-11.63,7.61-16.39,.02-.25,.19-2.04,.23-2.04,.06,0-.09,3.12-.17,4.11-.49,6.16-4.68,11.96-7.22,14.86,1.04-.22,10.43-2.41,13-8.71,2.72-6.66-3.24-15.4-3.24-15.4Z" style="fill: #28a737; stroke: #9cca87; stroke-miterlimit: 10; stroke-width: .5px;"/>
  <rect x="29.15" y="37.57" width="1.42" height="1.94" transform="translate(26.16 87.16) rotate(-137.88)" style="fill: #28a737;"/>
  <rect x="29.89" y="38.28" width=".42" height=".9" style="fill: #28a737;"/>
  <path d="M13.51,22.82s-2,9.4,2.58,14.06c3.9,3.96,11.29,3.23,13.42,2.92-2.39-3.46-7.14-10.14-10.95-12.23-.2-.11-1.64-.89-1.62-.93,.03-.05,2.57,1.2,3.37,1.62,4.97,2.62,8.3,8.2,9.81,11.36,.19-.94,1.73-9.57-2.6-13.97-4.58-4.66-14.01-2.82-14.01-2.82Z" style="fill: #28a737; stroke: #9cca87; stroke-miterlimit: 10; stroke-width: .5px;"/>
</svg>