<?xml version="1.0" encoding="UTF-8"?>
<svg id="Ebene_1" data-name="Ebene 1" xmlns="http://www.w3.org/2000/svg" viewBox="0 0 80.37 86.77">
  <g>
    <path d="M28.7,0C12.85,0-.14,12.85,0,28.69c.2,24.35,29.68,58.07,29.68,58.07,0,0,28.31-34.42,27.71-58.07C56.99,12.85,44.54,0,28.7,0Zm0,49.6c-11.23,0-20.34-9.11-20.34-20.34S17.47,8.92,28.7,8.92s20.34,9.11,20.34,20.34-9.11,20.34-20.34,20.34Z" style="fill: #9cca87;"/>
    <circle cx="28.7" cy="29.26" r="20.34" style="fill: #fff;"/>
  </g>
  <path d="M34.58,12.57s-13.95,3.5-17.19,12.73c-2.76,7.85,3.1,17.3,4.92,19.96,3.08-5.49,8.93-16.28,9.23-22.77,.02-.35,.11-2.79,.18-2.79,.08,0,.09,4.24,.04,5.59-.25,8.4-5.55,16.56-8.8,20.66,1.39-.37,14-3.98,17.06-12.7,3.25-9.23-5.44-20.69-5.44-20.69Z" style="fill: #9cca87;"/>
</svg>