<?xml version="1.0" encoding="UTF-8"?>
<svg id="Ebene_1" data-name="Ebene 1" xmlns="http://www.w3.org/2000/svg" viewBox="0 0 55.67 83.67">
  <path d="M54.66,27.83c-.38-14.81-12.01-26.83-26.83-26.83S.87,13.01,1,27.83c.19,22.77,27.75,54.3,27.75,54.3,0,0,26.47-32.18,25.91-54.3Zm-26.83,13.51c-7.46,0-13.51-6.05-13.51-13.51s6.05-13.51,13.51-13.51,13.51,6.05,13.51,13.51-6.05,13.51-13.51,13.51Z" style="fill: #c38a8a; stroke: #b1868c; stroke-miterlimit: 10; stroke-width: 2px;"/>
  <path d="M37.69,27.11c0,.37-.02,.74,0,1.1,.07,1.45-.5,2.64-1.47,3.7-1.75,1.89-4,2.87-6.46,3.31-3.08,.55-6.14,.32-9.03-.87-.87-.37-1.68-.92-2.5-1.45-.46-.3-.76-.74-.71-1.36,.05-.57-.02-1.15-.05-1.72-.02-.69,.23-1.2,.87-1.47,.55-.25,1.15-.44,1.7-.69,.35-.14,.67-.32,.97-.53,.37-.25,.48-.64,.39-1.08-.07-.32-.11-.64-.21-.97-.21-.9,0-1.68,.57-2.37,1.22-1.54,2.83-2.41,4.69-2.8,3.36-.7,6.51-.21,9.31,1.84,1.26,.92,1.95,2.25,1.93,3.86-.02,.5,0,.99,0,1.49h0Zm-11.59,5.61c.48,0,1.08-.11,1.65-.21,1.13-.21,2.28-.37,3.36-.71,2.18-.69,4-1.91,5.1-4,.87-1.65,.83-3.45-.28-4.62-.57-.62-1.26-1.17-2.02-1.54-1.95-1.01-4.07-1.28-6.25-1.06-2,.21-3.72,1.01-5.1,2.48-.53,.57-.76,1.22-.55,2,.07,.25,.11,.5,.16,.76,.18,.99-.09,1.68-.94,2.18-.46,.28-.97,.46-1.45,.69-.41,.21-.83,.41-1.22,.62-.25,.07-.32,.3-.18,.55,.09,.23,.21,.48,.39,.62,.55,.41,1.08,.85,1.7,1.1,1.72,.78,3.61,1.17,5.63,1.12h0Z" style="fill: #c38a8a;"/>
  <path d="M25.53,31.6c-1.47-.09-3.06-.21-4.53-.9-.21-.09-.41-.18-.55-.35-.21-.25-.5-.55-.48-.83,.02-.23,.41-.46,.69-.6,.46-.23,.94-.32,1.4-.53,1.36-.62,1.86-1.84,1.36-3.24-.35-.97-.18-1.49,.69-2.05,.41-.25,.87-.46,1.31-.67,2-.92,4.11-1.08,6.23-.55,.9,.23,1.77,.64,2.55,1.15,1.4,.92,1.79,2.69,1.08,4.25-.76,1.68-2.11,2.74-3.82,3.4-1.88,.74-3.81,.92-5.93,.9h0Zm6-6.09c.23,.02,.41,.11,.6,.23,.28,.18,.55,.39,.8,.6,.23,.18,1.01,.25,1.17,.07,.11-.14,.09-.21,.07-.3-.02-.09-.14-.25-.41-.28s-.83-.02-1.08-.11c-.8-.3-1.17-.9-1.1-1.77,.02-.21,.11-.44,.11-.64,0-.3-.28-.39-.32-.39-.18,.02-.14,.02-.28,.11-.07,.05-.16,.39-.14,.5,.05,.35,.14,.67,.16,1.01,.05,.46-.14,.8-.57,1.01-.3,.14-.6,.23-.9,.39-.11,.07-.25,.09-.23,.35,0,.11,.18,.28,.3,.28,.16,.02,.35-.05,.48-.14,.25-.18,.44-.41,.69-.57,.18-.18,.29-.37,.64-.35h0Z" style="fill: #c38a8a;"/>
</svg>