<?xml version="1.0" encoding="UTF-8"?>
<svg id="Ebene_1" data-name="Ebene 1" xmlns="http://www.w3.org/2000/svg" viewBox="0 0 700 700">
  <path d="m694.8,317.4c0,12.5-.8,25.1,0,37.6,2.4,49.4-17.2,90.1-50.2,126.2-59.6,64.3-136.4,98-220.2,112.9-105,18.8-209.3,11-308-29.8-29.8-12.5-57.2-31.3-85.4-49.4-15.7-10.2-25.9-25.1-24.3-46.2,1.6-19.6-.8-39.2-1.6-58.8-.8-23.5,7.8-40.8,29.8-50.2,18.8-8.6,39.2-14.9,58-23.5,11.8-4.7,22.7-11,32.9-18,12.5-8.6,16.5-21.9,13.3-36.8-2.4-11-3.9-21.9-7.1-32.9-7.1-30.6,0-57.2,19.6-80.7,41.5-52.5,96.4-82.3,159.9-95.6,114.5-23.7,221.9-7.2,317.5,62.6,43.1,31.3,66.6,76.8,65.8,131.7-.8,17.2,0,33.6,0,50.9h0Zm-395,191.2c16.5,0,36.8-3.9,56.4-7.1,38.4-7.1,77.6-12.5,114.4-24.3,74.5-23.5,136.4-65.1,174-136.4,29.8-56.4,28.2-117.6-9.4-157.5-19.6-21.2-43.1-40-69-52.5-66.5-34.4-138.6-43.8-213.1-36-68.2,7.1-127,34.5-174,84.6-18,19.6-25.9,41.5-18.8,68.2,2.4,8.6,3.9,17.2,5.5,25.9,6.3,33.7-3.1,57.2-32.1,74.5-15.7,9.4-32.9,15.7-49.4,23.5-14.1,7.1-28.2,14.1-41.5,21.2-8.6,2.3-11,10.2-6.3,18.8,3.1,7.8,7.1,16.5,13.3,21.2,18.8,14.1,36.8,29,58,37.6,58.8,26.6,123,39.9,192,38.3h0Z"/>
  <path d="m280.2,470.2c-50.2-3.1-104.2-7.1-154.4-30.6-7.1-3.1-14.1-6.3-18.8-11.8-7.1-8.6-17.2-18.8-16.5-28.2.8-7.8,14.1-15.7,23.5-20.4,15.7-7.8,32.1-11,47.8-18,46.2-21.2,63.5-62.7,46.2-110.5-11.8-32.9-6.3-50.9,23.5-69.8,14.1-8.6,29.8-15.7,44.7-22.7,68.2-31.3,140.3-36.8,212.4-18.8,30.6,7.8,60.4,21.9,87,39.2,47.8,31.3,61.1,91.7,36.8,145-25.9,57.2-72.1,93.3-130.1,116-64.1,25.1-130,31.4-202.1,30.6h0Zm204.6-207.7c7.8.8,14.1,3.9,20.4,7.8,9.4,6.3,18.8,13.3,27.4,20.4,7.8,6.3,34.5,8.6,40,2.4,3.9-4.7,3.1-7.1,2.4-10.2-.8-3.1-4.7-8.6-14.1-9.4-9.4-.8-28.2-.8-36.8-3.9-27.4-10.2-40-30.6-37.6-60.4.8-7.1,3.9-14.9,3.9-21.9,0-10.2-9.4-13.3-11-13.3-6.3.8-4.7.8-9.4,3.9-2.4,1.6-5.5,13.3-4.7,17.2,1.6,11.8,4.7,22.7,5.5,34.5,1.6,15.7-4.7,27.4-19.6,34.5-10.2,4.7-20.4,7.8-30.6,13.3-3.9,2.4-8.6,3.1-7.8,11.8,0,3.9,6.3,9.4,10.2,9.4,5.5.8,11.8-1.6,16.5-4.7,8.6-6.3,14.9-14.1,23.5-19.6,6.1-6.3,10-12.6,21.8-11.8h0Z"/>
</svg>